<svg xmlns="http://www.w3.org/2000/svg" xmlns:xlink="http://www.w3.org/1999/xlink" width="1920" zoomAndPan="magnify" viewBox="0 0 1440 809.999993" height="1080" preserveAspectRatio="xMidYMid meet" version="1.0"><defs><filter x="0%" y="0%" width="100%" height="100%" id="6ad728823b"><feColorMatrix values="0 0 0 0 1 0 0 0 0 1 0 0 0 0 1 0 0 0 1 0" color-interpolation-filters="sRGB"/></filter><g/><mask id="b0b0992dd2"><g filter="url(#6ad728823b)"><rect x="-144" width="1728" fill="#000000" y="-80.999999" height="971.999992" fill-opacity="0.5098"/></g></mask><clipPath id="c4e206364a"><path d="M 1.796875 0.171875 L 534.433594 0.171875 L 534.433594 91.890625 L 1.796875 91.890625 Z M 1.796875 0.171875 " clip-rule="nonzero"/></clipPath><clipPath id="09e7e3bdc7"><rect x="0" width="536" y="0" height="93"/></clipPath></defs><rect x="-144" width="1728" fill="#ffffff" y="-80.999999" height="971.999992" fill-opacity="1"/><rect x="-144" width="1728" fill="#ffffff" y="-80.999999" height="971.999992" fill-opacity="1"/><rect x="-144" width="1728" fill="#ffffff" y="-80.999999" height="971.999992" fill-opacity="1"/><g fill="#2fdfdf" fill-opacity="1"><g transform="translate(94.121224, 472.936823)"><g><path d="M 227.703125 -139.671875 C 218.535156 -139.671875 212.144531 -144.019531 208.53125 -152.71875 C 195.207031 -152.71875 180.582031 -149.476562 164.65625 -143 C 154.757812 -138.925781 148.097656 -135.175781 144.671875 -131.75 C 141.242188 -128.332031 139.414062 -125.648438 139.1875 -123.703125 C 138.957031 -121.765625 139.90625 -120.125 142.03125 -118.78125 C 144.15625 -117.4375 147.140625 -116.160156 150.984375 -114.953125 C 154.828125 -113.753906 159.296875 -112.550781 164.390625 -111.34375 C 191.046875 -105.144531 207.9375 -100.84375 215.0625 -98.4375 C 229.226562 -93.71875 239.828125 -88.535156 246.859375 -82.890625 C 253.523438 -77.242188 256.859375 -69.5625 256.859375 -59.84375 C 256.859375 -51.789062 254.378906 -44.984375 249.421875 -39.421875 C 244.472656 -33.867188 237.925781 -28.914062 229.78125 -24.5625 C 221.632812 -20.21875 212.539062 -16.351562 202.5 -12.96875 C 192.457031 -9.59375 181.859375 -6.703125 170.703125 -4.296875 C 159.546875 -1.890625 148.554688 0.0976562 137.734375 1.671875 C 116.535156 4.628906 98.4375 6.109375 83.4375 6.109375 C 56.132812 6.109375 35.078125 2.820312 20.265625 -3.75 C 14.710938 -6.25 10.179688 -12.492188 6.671875 -22.484375 C 3.890625 -30.722656 2.5 -37.503906 2.5 -42.828125 C 2.5 -48.148438 2.960938 -51.085938 3.890625 -51.640625 C 4.816406 -52.203125 6.710938 -52.226562 9.578125 -51.71875 C 12.453125 -51.207031 16.203125 -50.351562 20.828125 -49.15625 L 37.484375 -44.703125 C 63.304688 -38.222656 90.613281 -34.984375 119.40625 -34.984375 C 140.601562 -34.984375 158.554688 -36.882812 173.265625 -40.6875 C 181.972656 -43 186.601562 -45.585938 187.15625 -48.453125 C 187.53125 -50.953125 180.679688 -54.050781 166.609375 -57.75 C 160.222656 -59.507812 152.816406 -61.363281 144.390625 -63.3125 C 103.578125 -73.21875 78.957031 -79.601562 70.53125 -82.46875 C 62.101562 -85.34375 56.617188 -87.890625 54.078125 -90.109375 C 51.535156 -92.328125 49.429688 -94.78125 47.765625 -97.46875 C 44.703125 -102.738281 43.171875 -107.757812 43.171875 -112.53125 C 43.171875 -117.300781 43.425781 -120.976562 43.9375 -123.5625 C 44.445312 -126.15625 45.164062 -128.5625 46.09375 -130.78125 C 48.039062 -135.320312 50.492188 -138.425781 53.453125 -140.09375 C 77.242188 -153.414062 112.1875 -165.125 158.28125 -175.21875 C 199.28125 -184.289062 233.015625 -188.828125 259.484375 -188.828125 C 264.859375 -188.828125 268.890625 -187.898438 271.578125 -186.046875 C 276.203125 -182.617188 278.234375 -178.960938 277.671875 -175.078125 C 277.117188 -171.191406 275.941406 -167.601562 274.140625 -164.3125 C 272.335938 -161.03125 270.09375 -158.066406 267.40625 -155.421875 C 264.71875 -152.785156 261.726562 -150.472656 258.4375 -148.484375 C 255.15625 -146.492188 251.757812 -144.851562 248.25 -143.5625 C 241.207031 -140.96875 234.359375 -139.671875 227.703125 -139.671875 Z M 227.703125 -139.671875 "/></g></g></g><g fill="#2fdfdf" fill-opacity="1"><g transform="translate(372.225673, 472.936823)"><g><path d="M 197.5625 -89.546875 C 197.5625 -85.203125 191.867188 -76.78125 180.484375 -64.28125 C 168.828125 -51.601562 157.398438 -41.285156 146.203125 -33.328125 C 124.535156 -17.210938 100.515625 -6.195312 74.140625 -0.28125 C 64.140625 2.03125 54.671875 3.1875 45.734375 3.1875 C 36.804688 3.1875 29.40625 2.421875 23.53125 0.890625 C 17.65625 -0.628906 12.378906 -2.660156 7.703125 -5.203125 C 3.023438 -7.753906 -1.019531 -10.691406 -4.4375 -14.015625 C -7.863281 -17.347656 -10.734375 -20.867188 -13.046875 -24.578125 C -17.585938 -31.796875 -19.859375 -38.457031 -19.859375 -44.5625 C -19.859375 -50.675781 -19.1875 -56.046875 -17.84375 -60.671875 C -16.5 -65.296875 -14.625 -69.691406 -12.21875 -73.859375 C -3.789062 -89.035156 13.144531 -102.457031 38.59375 -114.125 C 58.675781 -123.476562 77.835938 -129.539062 96.078125 -132.3125 C 103.941406 -133.519531 109.539062 -134.125 112.875 -134.125 C 116.207031 -134.125 119.003906 -133.773438 121.265625 -133.078125 C 123.535156 -132.378906 125.503906 -131.429688 127.171875 -130.234375 C 130.878906 -127.546875 132.734375 -123.890625 132.734375 -119.265625 C 132.734375 -114.640625 131.53125 -110.265625 129.125 -106.140625 C 126.71875 -102.023438 123.660156 -98.578125 119.953125 -95.796875 C 112.734375 -90.429688 104.679688 -87.75 95.796875 -87.75 C 83.671875 -87.75 73.675781 -89.320312 65.8125 -92.46875 C 60.351562 -90.519531 55.722656 -86.957031 51.921875 -81.78125 C 48.773438 -77.519531 47.203125 -73.695312 47.203125 -70.3125 C 47.203125 -66.9375 47.960938 -63.648438 49.484375 -60.453125 C 51.015625 -57.265625 53.171875 -54.421875 55.953125 -51.921875 C 62.054688 -46.554688 69.414062 -43.875 78.03125 -43.875 C 98.019531 -43.875 121.296875 -54.472656 147.859375 -75.671875 L 160.5 -85.53125 C 173.820312 -95.707031 183.328125 -100.796875 189.015625 -100.796875 C 194.710938 -100.796875 197.5625 -97.046875 197.5625 -89.546875 Z M 197.5625 -89.546875 "/></g></g></g><g fill="#2fdfdf" fill-opacity="1"><g transform="translate(531.759682, 472.936823)"><g><path d="M 17.5 -117.046875 C 11.570312 -117.046875 8.609375 -119.867188 8.609375 -125.515625 C 8.609375 -128.109375 9.945312 -132.804688 12.625 -139.609375 C 15.3125 -146.410156 17.628906 -151.707031 19.578125 -155.5 C 24.015625 -164.382812 28.550781 -170.539062 33.1875 -173.96875 C 40.59375 -179.425781 69.515625 -184.378906 119.953125 -188.828125 C 141.890625 -190.671875 157.859375 -191.59375 167.859375 -191.59375 C 177.859375 -191.59375 184.960938 -191.453125 189.171875 -191.171875 C 193.378906 -190.898438 197.75 -190.414062 202.28125 -189.71875 C 206.820312 -189.03125 211.359375 -188.148438 215.890625 -187.078125 C 220.429688 -186.015625 224.738281 -184.695312 228.8125 -183.125 C 237.601562 -179.707031 243.757812 -175.453125 247.28125 -170.359375 C 258.289062 -154.347656 263.796875 -141.296875 263.796875 -131.203125 C 263.796875 -119.910156 255.1875 -108.847656 237.96875 -98.015625 C 232.789062 -94.679688 227.238281 -91.351562 221.3125 -88.03125 C 199.738281 -76.363281 187.101562 -69.46875 183.40625 -67.34375 C 191.175781 -52.25 206.398438 -36.648438 229.078125 -20.546875 C 231.765625 -18.691406 233.894531 -17.304688 235.46875 -16.390625 C 242.414062 -12.316406 250.609375 -12.960938 260.046875 -18.328125 C 262.640625 -19.898438 265.273438 -20.6875 267.953125 -20.6875 C 270.640625 -20.6875 273 -19.691406 275.03125 -17.703125 C 277.070312 -15.710938 278.09375 -13.515625 278.09375 -11.109375 C 278.09375 -0.0859375 270.734375 11.757812 256.015625 24.4375 C 245.097656 33.875 235.242188 38.59375 226.453125 38.59375 C 219.316406 38.59375 203.8125 28.132812 179.9375 7.21875 C 166.425781 -4.625 155.457031 -15.21875 147.03125 -24.5625 C 138.601562 -33.914062 132.816406 -40.882812 129.671875 -45.46875 C 126.523438 -50.050781 124.953125 -54.007812 124.953125 -57.34375 C 124.953125 -60.675781 125.757812 -63.632812 127.375 -66.21875 C 129 -68.8125 131.203125 -71.3125 133.984375 -73.71875 C 138.328125 -77.425781 144.523438 -81.382812 152.578125 -85.59375 C 160.628906 -89.800781 167.203125 -93.800781 172.296875 -97.59375 C 177.390625 -101.394531 181.785156 -105.332031 185.484375 -109.40625 C 193.628906 -118.007812 197.703125 -125.785156 197.703125 -132.734375 C 197.703125 -137.265625 196.316406 -141.054688 193.546875 -144.109375 C 188.453125 -149.578125 183.726562 -152.3125 179.375 -152.3125 C 171.882812 -152.3125 162.722656 -151.800781 151.890625 -150.78125 L 134.953125 -120.796875 C 113.390625 -81.640625 98.671875 -46.375 90.796875 -15 C 87.648438 -2.78125 75.757812 3.328125 55.125 3.328125 C 38.09375 3.328125 27.210938 -0.648438 22.484375 -8.609375 C 20.910156 -11.296875 20.332031 -13.910156 20.75 -16.453125 C 21.164062 -18.992188 22.390625 -22.320312 24.421875 -26.4375 C 26.460938 -30.5625 29.242188 -35.722656 32.765625 -41.921875 L 45.125 -63.03125 L 60.25 -87.890625 L 77.328125 -114.6875 L 95.109375 -141.34375 C 62.804688 -134.394531 39.25 -126.894531 24.4375 -118.84375 C 22.21875 -117.644531 19.90625 -117.046875 17.5 -117.046875 Z M 17.5 -117.046875 "/></g></g></g><g fill="#2fdfdf" fill-opacity="1"><g transform="translate(809.031113, 472.936823)"><g><path d="M 120.640625 -160.5625 C 117.960938 -158.300781 115.050781 -156.453125 111.90625 -155.015625 C 108.757812 -153.578125 105.238281 -152.859375 101.34375 -152.859375 C 97.457031 -152.859375 93.707031 -153.503906 90.09375 -154.796875 C 86.488281 -156.097656 83.347656 -157.90625 80.671875 -160.21875 C 74.835938 -165.21875 71.921875 -171.601562 71.921875 -179.375 C 71.921875 -191.320312 81.914062 -200.207031 101.90625 -206.03125 C 108.664062 -208.070312 114.21875 -209.09375 118.5625 -209.09375 C 122.914062 -209.09375 126.179688 -208.601562 128.359375 -207.625 C 130.535156 -206.65625 132.316406 -205.382812 133.703125 -203.8125 C 136.484375 -200.664062 137.875 -197.445312 137.875 -194.15625 C 137.875 -190.875 137.476562 -187.890625 136.6875 -185.203125 C 135.894531 -182.523438 134.757812 -179.75 133.28125 -176.875 C 131.800781 -174.007812 129.992188 -171.140625 127.859375 -168.265625 C 125.734375 -165.398438 123.328125 -162.832031 120.640625 -160.5625 Z M 85.65625 -7.703125 C 78.625 -4.046875 71.773438 -1.132812 65.109375 1.03125 C 58.453125 3.207031 51.90625 4.296875 45.46875 4.296875 C 39.039062 4.296875 32.378906 2.75 25.484375 -0.34375 C 18.585938 -3.445312 12.453125 -7.585938 7.078125 -12.765625 C -4.859375 -24.335938 -10.828125 -37.207031 -10.828125 -51.375 C -10.828125 -64.425781 -6.941406 -77.660156 0.828125 -91.078125 C 7.960938 -103.203125 17.035156 -113.382812 28.046875 -121.625 C 39.054688 -129.863281 49.285156 -133.984375 58.734375 -133.984375 C 72.242188 -133.984375 79.460938 -130.1875 80.390625 -122.59375 C 80.671875 -120.28125 80.8125 -117.597656 80.8125 -114.546875 C 80.8125 -111.492188 80.09375 -108 78.65625 -104.0625 C 77.21875 -100.125 75.363281 -96.1875 73.09375 -92.25 C 70.832031 -88.320312 68.332031 -84.484375 65.59375 -80.734375 C 62.863281 -76.984375 60.25 -73.582031 57.75 -70.53125 C 52.9375 -64.695312 49.097656 -60.484375 46.234375 -57.890625 C 46.234375 -54.742188 48.59375 -51.503906 53.3125 -48.171875 C 57.757812 -45.023438 61.53125 -43.453125 64.625 -43.453125 C 67.726562 -43.453125 71.382812 -44.191406 75.59375 -45.671875 C 79.8125 -47.160156 84.164062 -49.148438 88.65625 -51.640625 C 93.144531 -54.140625 97.722656 -57.007812 102.390625 -60.25 C 107.066406 -63.488281 111.671875 -66.820312 116.203125 -70.25 L 141.609375 -90.109375 C 151.703125 -97.421875 159.894531 -101.078125 166.1875 -101.078125 C 168.6875 -101.078125 170.609375 -100.171875 171.953125 -98.359375 C 173.296875 -96.554688 173.96875 -94.453125 173.96875 -92.046875 C 173.96875 -89.640625 172.765625 -86.332031 170.359375 -82.125 C 167.953125 -77.914062 164.640625 -73.265625 160.421875 -68.171875 C 156.210938 -63.078125 151.285156 -57.753906 145.640625 -52.203125 C 139.992188 -46.648438 133.882812 -41.1875 127.3125 -35.8125 C 120.738281 -30.445312 113.910156 -25.332031 106.828125 -20.46875 C 99.753906 -15.613281 92.695312 -11.359375 85.65625 -7.703125 Z M 85.65625 -7.703125 "/></g></g></g><g fill="#2fdfdf" fill-opacity="1"><g transform="translate(945.100949, 472.936823)"><g><path d="M 34.015625 -4.578125 C 30.492188 -7.910156 27.851562 -11.679688 26.09375 -15.890625 C 24.34375 -20.109375 23.46875 -23.765625 23.46875 -26.859375 C 23.46875 -29.960938 24.300781 -33.644531 25.96875 -37.90625 C 27.632812 -42.164062 29.898438 -47.09375 32.765625 -52.6875 C 35.628906 -58.289062 38.957031 -64.398438 42.75 -71.015625 C 46.550781 -77.628906 50.628906 -84.316406 54.984375 -91.078125 L 68.03125 -111.203125 C 72.5625 -117.773438 77.003906 -123.882812 81.359375 -129.53125 C 62.847656 -123.613281 49.125 -117.851562 40.1875 -112.25 C 31.257812 -106.65625 24.390625 -102.5625 19.578125 -99.96875 C 14.765625 -97.375 10.785156 -96.078125 7.640625 -96.078125 C 2.453125 -96.078125 -0.140625 -99.316406 -0.140625 -105.796875 C -0.140625 -115.054688 4.671875 -126.441406 14.296875 -139.953125 C 24.296875 -153.929688 34.640625 -162.582031 45.328125 -165.90625 C 56.015625 -169.238281 67.953125 -172.410156 81.140625 -175.421875 C 94.335938 -178.429688 108.0625 -181.046875 122.3125 -183.265625 C 153.226562 -188.078125 181.96875 -190.484375 208.53125 -190.484375 C 238.894531 -190.484375 258.289062 -187.613281 266.71875 -181.875 C 274.207031 -176.789062 279.296875 -169.757812 281.984375 -160.78125 C 283.273438 -156.425781 283.921875 -151.75 283.921875 -146.75 C 283.921875 -141.75 281.488281 -136.539062 276.625 -131.125 C 271.769531 -125.71875 265.316406 -120.609375 257.265625 -115.796875 C 242.085938 -106.535156 222.1875 -98.203125 197.5625 -90.796875 C 211.539062 -88.117188 221.238281 -85.039062 226.65625 -81.5625 C 232.070312 -78.09375 235.890625 -74.625 238.109375 -71.15625 C 240.328125 -67.6875 241.4375 -63.289062 241.4375 -57.96875 C 241.4375 -52.644531 239.125 -47.160156 234.5 -41.515625 C 229.875 -35.867188 223.460938 -30.59375 215.265625 -25.6875 C 207.078125 -20.78125 197.40625 -16.335938 186.25 -12.359375 C 175.09375 -8.378906 162.992188 -5 149.953125 -2.21875 C 122.734375 3.707031 94.410156 6.671875 64.984375 6.671875 C 52.203125 6.671875 41.878906 2.921875 34.015625 -4.578125 Z M 111.34375 -108.84375 C 97.46875 -84.78125 90.53125 -68.125 90.53125 -58.875 C 90.53125 -54.613281 92.75 -50.628906 97.1875 -46.921875 C 101.351562 -43.410156 105.703125 -41.65625 110.234375 -41.65625 C 114.773438 -41.65625 119.773438 -41.863281 125.234375 -42.28125 C 130.691406 -42.695312 136.289062 -43.273438 142.03125 -44.015625 C 147.769531 -44.753906 153.414062 -45.628906 158.96875 -46.640625 C 164.519531 -47.660156 169.472656 -48.820312 173.828125 -50.125 C 183.453125 -52.988281 188.265625 -55.90625 188.265625 -58.875 C 188.265625 -64.238281 180.8125 -68.679688 165.90625 -72.203125 C 153.78125 -74.972656 142.210938 -76.359375 131.203125 -76.359375 C 126.941406 -76.359375 123.882812 -77.210938 122.03125 -78.921875 C 120.1875 -80.640625 119.265625 -82.628906 119.265625 -84.890625 C 119.265625 -87.160156 120.394531 -89.519531 122.65625 -91.96875 C 124.925781 -94.425781 128.003906 -96.441406 131.890625 -98.015625 C 163.367188 -105.890625 189.660156 -114.734375 210.765625 -124.546875 C 221.128906 -129.359375 226.3125 -133.007812 226.3125 -135.5 C 226.3125 -139.113281 225.242188 -142.03125 223.109375 -144.25 C 219.316406 -148.226562 215.101562 -150.21875 210.46875 -150.21875 C 205.84375 -150.21875 200.566406 -150.03125 194.640625 -149.65625 C 188.722656 -149.289062 182.34375 -148.738281 175.5 -148 C 160.40625 -146.519531 145.453125 -144.390625 130.640625 -141.609375 C 128.515625 -137.265625 125.691406 -132.363281 122.171875 -126.90625 Z M 111.34375 -108.84375 "/></g></g></g><g fill="#2fdfdf" fill-opacity="1"><g transform="translate(1222.788875, 472.936823)"><g><path d="M 192.015625 -102.046875 C 196.453125 -102.046875 198.671875 -99.546875 198.671875 -94.546875 C 198.671875 -91.210938 197.535156 -87.023438 195.265625 -81.984375 C 193.003906 -76.941406 189.742188 -72.222656 185.484375 -67.828125 C 181.234375 -63.429688 176.351562 -58.867188 170.84375 -54.140625 C 165.332031 -49.421875 158.894531 -44.46875 151.53125 -39.28125 C 144.175781 -34.101562 136.054688 -28.96875 127.171875 -23.875 C 118.285156 -18.789062 108.847656 -14.210938 98.859375 -10.140625 C 76.734375 -1.066406 55.304688 3.46875 34.578125 3.46875 C 18.742188 3.46875 4.90625 -0.648438 -6.9375 -8.890625 C -19.34375 -17.492188 -25.546875 -27.953125 -25.546875 -40.265625 C -25.546875 -59.609375 -15.132812 -77.984375 5.6875 -95.390625 C 23.644531 -110.378906 44.796875 -121.992188 69.140625 -130.234375 C 83.953125 -135.234375 96.492188 -137.734375 106.765625 -137.734375 C 115.097656 -137.734375 122.132812 -135.695312 127.875 -131.625 C 133.976562 -127.175781 137.03125 -121.203125 137.03125 -113.703125 C 137.03125 -101.953125 127.726562 -88.953125 109.125 -74.703125 C 106.164062 -72.378906 103.484375 -70.429688 101.078125 -68.859375 L 96.078125 -65.53125 C 86.816406 -59.050781 72.75 -51.785156 53.875 -43.734375 C 59.695312 -40.679688 65.128906 -39.15625 70.171875 -39.15625 C 75.222656 -39.15625 79.757812 -39.753906 83.78125 -40.953125 C 87.8125 -42.160156 92.375 -43.875 97.46875 -46.09375 C 102.5625 -48.3125 108 -50.972656 113.78125 -54.078125 C 119.5625 -57.179688 125.414062 -60.582031 131.34375 -64.28125 C 144.582031 -72.519531 156.0625 -80.941406 165.78125 -89.546875 C 170.863281 -94.265625 177.34375 -98.015625 185.21875 -100.796875 C 187.800781 -101.628906 190.066406 -102.046875 192.015625 -102.046875 Z M 38.875 -63.03125 L 46.515625 -66.921875 C 49.015625 -68.210938 51.234375 -69.414062 53.171875 -70.53125 C 71.867188 -81.269531 82.515625 -87.890625 85.109375 -90.390625 C 87.703125 -92.890625 89 -94.625 89 -95.59375 C 89 -96.5625 88.71875 -97.691406 88.15625 -98.984375 C 87.601562 -100.285156 86.863281 -101.445312 85.9375 -102.46875 C 83.71875 -105.050781 81.359375 -106.34375 78.859375 -106.34375 C 76.359375 -106.34375 73.601562 -105.878906 70.59375 -104.953125 C 67.59375 -104.035156 64.5625 -102.765625 61.5 -101.140625 C 58.445312 -99.523438 55.507812 -97.582031 52.6875 -95.3125 C 49.863281 -93.039062 47.390625 -90.613281 45.265625 -88.03125 C 40.359375 -82.195312 37.90625 -77.148438 37.90625 -72.890625 C 37.90625 -68.628906 38.226562 -65.34375 38.875 -63.03125 Z M 38.875 -63.03125 "/></g></g></g><path stroke-linecap="butt" transform="matrix(1.921669, 0, 0, 1.921669, 37.656461, 240.92204)" fill="none" stroke-linejoin="miter" d="M 136.912963 46.315862 C 132.144158 46.315862 128.820631 44.051391 126.942381 39.524483 C 120.006677 39.524483 112.396103 41.209623 104.110661 44.581936 C 98.957669 46.70005 95.489817 48.651479 93.707105 50.434191 C 91.924393 52.216902 90.973072 53.613394 90.85314 54.623665 C 90.733209 55.635968 91.227164 56.491751 92.335007 57.188981 C 93.442849 57.888243 94.995861 58.550916 96.994043 59.176999 C 98.994258 59.803083 101.317678 60.429166 103.966337 61.055249 C 117.839777 64.281206 126.629339 66.521283 130.339087 67.77345 C 137.707764 70.231031 143.222584 72.928475 146.883546 75.865783 C 150.351398 78.805123 152.085324 82.801487 152.085324 87.85894 C 152.085324 92.050447 150.7986 95.591478 148.221088 98.479999 C 145.643575 101.370553 142.236705 103.948066 137.996413 106.212536 C 133.758153 108.474975 129.025938 110.487386 123.799767 112.243672 C 118.573596 114.001991 113.058776 115.50825 107.255308 116.760417 C 101.449806 118.012584 95.72968 119.047248 90.094929 119.866441 C 79.065289 121.40929 69.647612 122.179698 61.843928 122.179698 C 47.635086 122.179698 36.676592 120.468132 28.97048 117.049066 C 26.079926 115.748113 23.719917 112.497764 21.890452 107.295986 C 20.445175 103.008941 19.72152 99.480106 19.72152 96.711516 C 19.72152 93.940894 19.963416 92.412274 20.445175 92.123626 C 20.926934 91.832944 21.914845 91.820748 23.406875 92.087036 C 24.900938 92.351292 26.850334 92.796462 29.259129 93.422545 L 37.928759 95.735802 C 51.369226 99.106082 65.578069 100.793255 80.557319 100.793255 C 91.588992 100.793255 100.933491 99.805345 108.590817 97.829523 C 113.119758 96.626141 115.526521 95.278436 115.817202 93.784373 C 116.00828 92.48342 112.444889 90.869426 105.122965 88.944422 C 101.799437 88.027657 97.945365 87.064139 93.562781 86.053868 C 72.320663 80.898843 59.508312 77.575316 55.125727 76.083286 C 50.743143 74.589223 47.889178 73.26591 46.563833 72.109282 C 45.238487 70.952653 44.142841 69.676094 43.276894 68.279602 C 41.687293 65.533373 40.892492 62.921303 40.892492 60.441362 C 40.892492 57.959389 41.02462 56.044549 41.288876 54.696843 C 41.555165 53.347105 41.927156 52.094938 42.408915 50.940342 C 43.421219 48.580333 44.697779 46.966339 46.238594 46.098359 C 58.617972 39.162655 76.800819 33.068505 100.787134 27.819974 C 122.126823 23.097922 139.683586 20.737913 153.459455 20.737913 C 156.252438 20.737913 158.348191 21.219672 159.744683 22.18319 C 162.153478 23.965902 163.212535 25.868545 162.923886 27.89112 C 162.635237 29.913695 162.02135 31.781782 161.082225 33.491315 C 160.143099 35.200848 158.974275 36.741664 157.577783 38.115795 C 156.181292 39.487893 154.626247 40.691275 152.916714 41.727971 C 151.207181 42.762635 149.436665 43.618418 147.607201 44.293287 C 143.946239 45.640993 140.380815 46.315862 136.912963 46.315862 Z M 265.955272 72.397931 C 265.955272 74.662401 262.993572 79.044986 257.068139 85.547716 C 250.998382 92.145986 245.050589 97.516481 239.222727 101.659202 C 227.951192 110.040183 215.451883 115.772506 201.724799 118.85617 C 196.523021 120.059552 191.597696 120.661242 186.948823 120.661242 C 182.29995 120.661242 178.44791 120.264858 175.388639 119.470057 C 172.329367 118.675257 169.58517 117.6162 167.151982 116.290854 C 164.718794 114.965509 162.612877 113.436889 160.830165 111.702963 C 159.047453 109.969037 157.555423 108.13754 156.350009 106.212536 C 153.99 102.454003 152.811011 98.986151 152.811011 95.806948 C 152.811011 92.627745 153.15861 89.834762 153.857872 87.425967 C 154.557134 85.017172 155.530816 82.730341 156.785015 80.563441 C 161.1676 72.662187 169.981554 65.67973 183.228911 59.609972 C 193.681253 54.745629 203.651835 51.590819 213.140659 50.145542 C 217.234594 49.519458 220.147509 49.206416 221.881435 49.206416 C 223.615361 49.206416 225.072834 49.385297 226.253855 49.747125 C 227.432844 50.108952 228.457344 50.602908 229.323291 51.228991 C 231.250327 52.625483 232.213845 54.528126 232.213845 56.936921 C 232.213845 59.345716 231.587761 61.620351 230.335594 63.76489 C 229.083427 65.907396 227.493826 67.702305 225.56679 69.147582 C 221.810289 71.940564 217.618782 73.337056 212.996335 73.337056 C 206.684681 73.337056 201.482903 72.517862 197.388968 70.881508 C 194.547199 71.891779 192.138404 73.747669 190.164615 76.445113 C 188.526228 78.660798 187.707034 80.646784 187.707034 82.405103 C 187.707034 84.163421 188.105451 85.872954 188.900252 87.533702 C 189.695052 89.196482 190.815091 90.678348 192.258336 91.977268 C 195.437539 94.772284 199.267218 96.168775 203.747374 96.168775 C 214.15093 96.168775 226.266052 90.653956 240.088674 79.622283 L 246.664583 74.493684 C 253.600287 69.194335 258.550006 66.545676 261.511706 66.545676 C 264.473406 66.545676 265.955272 68.497105 265.955272 72.397931 Z M 255.2651 58.091517 C 252.181436 58.091517 250.64062 56.623879 250.64062 53.684539 C 250.64062 52.336834 251.337849 49.891449 252.736373 46.352451 C 254.132865 42.811421 255.336246 40.052995 256.34855 38.079206 C 258.659773 33.454725 261.019783 30.251129 263.428578 28.47045 C 267.28265 25.626649 282.335079 23.051169 308.585865 20.737913 C 320.001725 19.774395 328.309527 19.292636 333.511305 19.292636 C 338.715116 19.292636 342.410635 19.365814 344.601927 19.510139 C 346.793219 19.654463 349.069886 19.908556 351.429896 20.26835 C 353.789905 20.630178 356.149915 21.087544 358.509924 21.642482 C 360.871966 22.195386 363.110011 22.882452 365.230158 23.701646 C 369.805852 25.482325 373.009448 27.69801 374.838913 30.348701 C 380.571236 38.680896 383.437397 45.472276 383.437397 50.722839 C 383.437397 56.599487 378.957241 62.356202 369.998962 67.990953 C 367.301518 69.724879 364.410964 71.458805 361.329332 73.192731 C 350.106583 79.262489 343.530674 82.850272 341.603637 83.958115 C 345.65082 91.808551 353.574435 99.925276 365.374482 108.306257 C 366.770974 109.269775 367.878816 109.99343 368.69801 110.475189 C 372.310186 112.593303 376.572839 112.255868 381.485968 109.462885 C 382.835706 108.643692 384.207805 108.235111 385.604296 108.235111 C 387.00282 108.235111 388.230594 108.751427 389.289651 109.788124 C 390.348708 110.822788 390.879253 111.967219 390.879253 113.219386 C 390.879253 118.951709 387.049573 125.117005 379.392247 131.715274 C 373.70871 136.628404 368.578078 139.085984 364.002384 139.085984 C 360.292636 139.085984 352.224696 133.642311 339.798566 122.756996 C 332.76529 116.5917 327.05736 111.07688 322.674776 106.212536 C 318.292192 101.34616 315.281706 97.721788 313.643319 95.337385 C 312.004931 92.952983 311.185738 90.893819 311.185738 89.159893 C 311.185738 87.425967 311.608547 85.885151 312.450101 84.535413 C 313.293688 83.187707 314.438119 81.886754 315.883397 80.634587 C 318.145835 78.707551 321.373823 76.648387 325.56533 74.457095 C 329.754804 72.265803 333.175903 70.182246 335.824562 68.208456 C 338.47322 66.232635 340.762084 64.185667 342.687087 62.065521 C 346.92738 57.587397 349.045493 53.540215 349.045493 49.928039 C 349.045493 47.568029 348.323871 45.592207 346.878594 44.002606 C 344.229936 41.160837 341.772355 39.739953 339.509917 39.739953 C 335.607059 39.739953 330.838254 40.006242 325.203503 40.534754 L 316.389548 56.14212 C 305.164766 76.516259 297.50744 94.867823 293.413505 111.196811 C 291.775117 117.555218 285.585428 120.734421 274.844438 120.734421 C 265.981698 120.734421 260.322554 118.66306 257.864973 114.520339 C 257.045779 113.123848 256.744934 111.761913 256.962437 110.4386 C 257.177907 109.113254 257.816187 107.379328 258.877276 105.236822 C 259.936333 103.092283 261.38161 100.407035 263.211075 97.181079 L 269.64266 86.198193 L 277.517489 73.26591 L 286.404622 59.321323 L 295.65155 45.447883 C 278.842835 49.060059 266.583388 52.962917 258.877276 57.152391 C 257.720648 57.778475 256.517267 58.091517 255.2651 58.091517 Z M 453.233508 35.442744 C 451.837017 36.621732 450.318561 37.58525 448.682206 38.331265 C 447.043819 39.079313 445.214354 39.451304 443.189747 39.451304 C 441.167172 39.451304 439.217776 39.113869 437.337493 38.441033 C 435.459242 37.766164 433.822888 36.827039 432.424363 35.621625 C 429.391518 33.021752 427.873062 29.698225 427.873062 25.651042 C 427.873062 19.438993 433.07484 14.814513 443.480428 11.779634 C 446.995033 10.720577 449.885588 10.190033 452.150058 10.190033 C 454.414529 10.190033 456.111866 10.442092 457.244101 10.948244 C 458.376337 11.454396 459.303265 12.117069 460.024888 12.936262 C 461.470165 14.572617 462.191787 16.247593 462.191787 17.957127 C 462.191787 19.66666 461.988513 21.219672 461.5779 22.618196 C 461.169319 24.014688 460.579825 25.459965 459.807385 26.951995 C 459.036977 28.446058 458.097851 29.938088 456.990009 31.43215 C 455.882166 32.924181 454.629999 34.261723 453.233508 35.442744 Z M 435.026269 114.989902 C 431.365307 116.892545 427.801916 118.408968 424.334064 119.541203 C 420.864179 120.673439 417.457309 121.240573 414.109389 121.240573 C 410.761469 121.240573 407.293617 120.433575 403.705833 118.819581 C 400.116017 117.205587 396.92665 115.050884 394.131635 112.35344 C 387.919585 106.332468 384.811528 99.636627 384.811528 92.26795 C 384.811528 85.474538 386.834103 78.58762 390.881286 71.60313 C 394.589001 65.293509 399.311052 59.99416 405.041342 55.709147 C 410.773665 51.422101 416.097407 49.277562 421.010536 49.277562 C 428.041779 49.277562 431.79828 51.253384 432.280039 55.202995 C 432.424363 56.406376 432.497542 57.802868 432.497542 59.392469 C 432.497542 60.982071 432.123518 62.801372 431.377503 64.84834 C 430.631488 66.895307 429.66797 68.942275 428.486949 70.989243 C 427.30796 73.036211 426.007008 75.034393 424.586124 76.985822 C 423.165239 78.937251 421.805337 80.707766 420.504385 82.297367 C 418.000051 85.330213 415.999836 87.523538 414.507806 88.871244 C 414.507806 90.509631 415.73558 92.194771 418.191128 93.928697 C 420.504385 95.567085 422.465977 96.386278 424.079972 96.386278 C 425.693966 96.386278 427.596609 96.000058 429.787902 95.22965 C 431.979194 94.459242 434.243664 93.422545 436.579281 92.123626 C 438.914898 90.822673 441.2993 89.32861 443.732488 87.64347 C 446.165676 85.956297 448.562275 84.222371 450.922284 82.441692 L 464.143216 72.109282 C 469.39378 68.303995 473.656432 66.401352 476.931174 66.401352 C 478.232127 66.401352 479.232234 66.870914 479.929463 67.81004 C 480.628726 68.749165 480.978357 69.844811 480.978357 71.096978 C 480.978357 72.349145 480.352273 74.072907 479.100106 76.264199 C 477.847939 78.455492 476.124177 80.876483 473.932885 83.525141 C 471.741593 86.1738 469.176277 88.944422 466.238969 91.832944 C 463.299629 94.723498 460.122459 97.565267 456.70136 100.358249 C 453.282294 103.153265 449.729067 105.81412 446.043712 108.342846 C 442.360389 110.871573 438.687231 113.087258 435.026269 114.989902 Z M 478.957814 116.616092 C 477.126317 114.882166 475.754218 112.918541 474.839486 110.727249 C 473.922721 108.535957 473.465355 106.633313 473.465355 105.019319 C 473.465355 103.405325 473.900361 101.490485 474.766308 99.2748 C 475.634287 97.059115 476.813275 94.495831 478.307338 91.580884 C 479.799368 88.665937 481.533294 85.486734 483.509116 82.043275 C 485.482905 78.599816 487.603052 75.119768 489.867522 71.60313 L 496.658902 61.126395 C 499.018911 57.707329 501.330135 54.528126 503.594606 51.590819 C 493.961458 54.67245 486.820447 57.67074 482.171574 60.585687 C 477.524734 63.498601 473.947114 65.630944 471.44278 66.97865 C 468.938446 68.328388 466.867086 69.003257 465.228698 69.003257 C 462.531254 69.003257 461.183549 67.316084 461.183549 63.943771 C 461.183549 59.128213 463.687882 53.20278 468.69655 46.171538 C 473.900361 38.898399 479.283053 34.393851 484.844625 32.659925 C 490.408231 30.925999 496.622313 29.275415 503.486871 27.710206 C 510.349396 26.144998 517.490407 24.785095 524.90787 23.628467 C 540.996995 21.124133 555.951853 19.871966 569.776508 19.871966 C 585.574952 19.871966 595.667499 21.363996 600.050083 24.352122 C 603.950908 27.00078 606.599567 30.661743 607.998091 35.332976 C 608.670927 37.597447 609.008362 40.030635 609.008362 42.630507 C 609.008362 45.232413 607.743998 47.942053 605.215272 50.759429 C 602.686545 53.576804 599.326428 56.237659 595.136954 58.741993 C 587.237732 63.559583 576.880929 67.895415 564.068578 71.747454 C 571.341716 73.143946 576.386973 74.745744 579.204349 76.552848 C 582.023757 78.35792 584.009743 80.165025 585.166371 81.972129 C 586.323 83.777201 586.900297 86.066065 586.900297 88.834655 C 586.900297 91.605277 585.696916 94.459242 583.288121 97.396549 C 580.879326 100.335889 577.543602 103.080086 573.280949 105.633206 C 569.018296 108.186326 563.985236 110.497549 558.179734 112.56891 C 552.376266 114.640271 546.078842 116.398589 539.287462 117.843867 C 525.125373 120.927531 510.385985 122.468347 495.0693 122.468347 C 488.422245 122.468347 483.05175 120.516918 478.957814 116.616092 Z M 519.19994 62.356202 C 511.975587 74.877872 508.36341 83.549534 508.36341 88.365092 C 508.36341 90.580777 509.520039 92.652138 511.831262 94.579174 C 513.998162 96.408638 516.262632 97.325404 518.622642 97.325404 C 520.982651 97.325404 523.584557 97.215636 526.426325 97.000165 C 529.268094 96.782662 532.181008 96.481817 535.169134 96.095597 C 538.155227 95.711409 541.092534 95.254043 543.983088 94.723498 C 546.873642 94.192953 549.449122 93.591263 551.713593 92.916394 C 556.722261 91.424363 559.228627 89.907941 559.228627 88.365092 C 559.228627 85.572109 555.350162 83.258853 547.595265 81.429388 C 541.285644 79.984111 535.264672 79.262489 529.53235 79.262489 C 527.316665 79.262489 525.727063 78.817319 524.763545 77.924947 C 523.800027 77.034607 523.318268 75.997911 523.318268 74.818922 C 523.318268 73.637901 523.909795 72.410127 525.088783 71.133567 C 526.269804 69.857007 527.871602 68.810147 529.894177 67.990953 C 546.271952 63.897018 559.950249 59.296931 570.933136 54.190691 C 576.328024 51.686357 579.025468 49.783714 579.025468 48.482761 C 579.025468 46.604511 578.47053 45.088088 577.362688 43.93146 C 575.388899 41.860099 573.195574 40.825435 570.788811 40.825435 C 568.380016 40.825435 565.633786 40.920974 562.552155 41.114084 C 559.46849 41.305162 556.144963 41.595843 552.581572 41.980031 C 544.729103 42.750439 536.949813 43.858281 529.243701 45.303558 C 528.135858 47.568029 526.666188 50.121149 524.836724 52.962917 Z M 705.681342 65.8952 C 707.994599 65.8952 709.151227 67.196153 709.151227 69.798058 C 709.151227 71.531984 708.5597 73.71108 707.380711 76.335345 C 706.19969 78.961643 704.502354 81.417192 702.286669 83.706055 C 700.070984 85.992886 697.53006 88.365092 694.663899 90.822673 C 691.797738 93.278221 688.449817 95.855734 684.620138 98.553178 C 680.792491 101.250622 676.564395 103.923673 671.941947 106.572331 C 667.317467 109.223022 662.404338 111.605392 657.20256 113.725538 C 645.689129 118.445557 634.539558 120.805567 623.749782 120.805567 C 615.513125 120.805567 608.311132 118.66306 602.145836 114.376015 C 595.691892 109.895859 592.465935 104.454218 592.465935 98.047026 C 592.465935 87.980904 597.883184 78.418902 608.721746 69.363052 C 618.066245 61.561401 629.071491 55.516037 641.739518 51.228991 C 649.447663 48.627086 655.972753 47.326133 661.320889 47.326133 C 665.654687 47.326133 669.315649 48.387223 672.301742 50.505336 C 675.480945 52.818593 677.070547 55.924617 677.070547 59.825443 C 677.070547 65.943986 672.230596 72.710972 662.548663 80.128435 C 661.007847 81.333849 659.609323 82.34412 658.357156 83.163314 L 655.757283 84.89724 C 650.939693 88.269553 643.617768 92.050447 633.793543 96.241954 C 636.826389 97.829523 639.655961 98.624323 642.282259 98.624323 C 644.906525 98.624323 647.266534 98.311282 649.362288 97.685198 C 651.458041 97.059115 653.830247 96.168775 656.478905 95.012147 C 659.127564 93.857552 661.959168 92.471224 664.969654 90.859262 C 667.98014 89.245268 671.025182 87.474752 674.108847 85.547716 C 680.995765 81.260671 686.969984 76.878086 692.027437 72.397931 C 694.676095 69.942382 698.048409 67.990953 702.142344 66.545676 C 703.49005 66.112703 704.671071 65.8952 705.681342 65.8952 Z M 625.98986 86.198193 L 629.963864 84.175618 C 631.262784 83.500749 632.419412 82.874665 633.431716 82.297367 C 643.160402 76.709369 648.699615 73.26591 650.049353 71.964957 C 651.397059 70.664005 652.071928 69.761469 652.071928 69.255317 C 652.071928 68.749165 651.927604 68.159671 651.638955 67.484802 C 651.350306 66.809932 650.964086 66.208242 650.482327 65.67973 C 649.325698 64.329991 648.097924 63.655122 646.796972 63.655122 C 645.498052 63.655122 644.064971 63.897018 642.499762 64.378777 C 640.932521 64.860536 639.355116 65.523209 637.765514 66.364763 C 636.175913 67.208349 634.647293 68.21862 633.177623 69.399641 C 631.709986 70.580662 630.42123 71.845026 629.313387 73.192731 C 626.760268 76.22761 625.483708 78.851876 625.483708 81.067561 C 625.483708 83.283246 625.652425 84.994811 625.98986 86.198193 Z M 625.98986 86.198193 " stroke="#2fdfdf" stroke-width="1.017312" stroke-opacity="1" stroke-miterlimit="4"/><g mask="url(#b0b0992dd2)"><g transform="matrix(1, 0, 0, 1, 452, 506)"><g clip-path="url(#09e7e3bdc7)"><g clip-path="url(#c4e206364a)"><path fill="#000000" d="M 358.324219 69.222656 C 358.957031 69.21875 359.585938 69.171875 360.210938 69.101562 C 360.902344 69 361.578125 68.871094 362.257812 68.707031 C 363.019531 68.496094 363.769531 68.246094 364.507812 67.957031 C 365.203125 67.660156 365.882812 67.332031 366.550781 66.972656 C 367.300781 66.539062 368.023438 66.066406 368.722656 65.558594 C 369.449219 64.996094 370.136719 64.398438 370.800781 63.765625 C 371.566406 63.003906 372.28125 62.203125 372.953125 61.355469 C 373.535156 60.597656 374.0625 59.8125 374.550781 58.996094 C 375.007812 58.1875 375.414062 57.355469 375.785156 56.503906 C 376.183594 55.511719 376.523438 54.503906 376.816406 53.46875 C 376.835938 53.402344 376.851562 53.335938 376.871094 53.265625 C 376.867188 53.273438 376.867188 53.273438 376.867188 53.277344 C 377.148438 52.152344 377.367188 51.011719 377.53125 49.867188 C 377.671875 48.703125 377.75 47.542969 377.765625 46.375 C 377.757812 45.636719 377.722656 44.90625 377.664062 44.171875 C 375.488281 44.769531 373.339844 45.457031 371.246094 46.292969 C 369.730469 46.914062 368.25 47.621094 366.816406 48.410156 C 365.464844 49.183594 364.148438 50.019531 362.902344 50.949219 C 361.949219 51.675781 361.042969 52.453125 360.175781 53.285156 C 359.238281 54.21875 358.367188 55.210938 357.546875 56.25 C 356.726562 57.332031 355.953125 58.445312 355.261719 59.617188 C 354.851562 60.347656 354.476562 61.09375 354.144531 61.871094 C 353.953125 62.359375 353.785156 62.855469 353.636719 63.363281 C 353.546875 63.746094 353.46875 64.132812 353.410156 64.527344 C 353.382812 64.828125 353.359375 65.136719 353.351562 65.441406 C 353.355469 65.65625 353.371094 65.867188 353.390625 66.078125 C 353.417969 66.257812 353.453125 66.4375 353.496094 66.621094 C 353.535156 66.75 353.574219 66.878906 353.621094 67.003906 C 353.675781 67.128906 353.734375 67.257812 353.796875 67.378906 C 353.859375 67.480469 353.929688 67.582031 353.996094 67.683594 C 354.074219 67.773438 354.152344 67.871094 354.234375 67.960938 C 354.335938 68.0625 354.441406 68.160156 354.554688 68.25 C 354.671875 68.335938 354.789062 68.410156 354.90625 68.488281 C 355.074219 68.582031 355.246094 68.660156 355.417969 68.738281 C 355.625 68.816406 355.832031 68.886719 356.039062 68.953125 C 356.363281 69.03125 356.6875 69.089844 357.015625 69.140625 C 357.453125 69.191406 357.886719 69.210938 358.324219 69.222656 Z M 235.171875 89.945312 C 231.871094 88.394531 229.207031 85.585938 227.734375 82.253906 C 227.082031 80.761719 226.953125 79.105469 227.097656 77.5 C 227.179688 76.589844 227.316406 75.664062 227.59375 74.792969 C 227.890625 73.847656 228.277344 72.957031 228.726562 72.074219 C 229.6875 70.164062 231.011719 68.496094 232.414062 66.902344 C 233.949219 65.160156 235.628906 63.542969 237.34375 61.984375 C 240.949219 58.703125 244.808594 55.730469 248.675781 52.761719 C 252.382812 49.925781 256.109375 47.101562 259.480469 43.859375 C 260.652344 42.691406 261.761719 41.476562 262.792969 40.179688 C 263.4375 39.320312 264.050781 38.433594 264.601562 37.511719 C 264.597656 37.523438 264.589844 37.539062 264.578125 37.550781 C 264.589844 37.535156 264.601562 37.515625 264.609375 37.5 C 264.644531 37.441406 264.675781 37.386719 264.710938 37.328125 C 264.683594 37.375 264.65625 37.417969 264.628906 37.464844 C 265.074219 36.6875 265.472656 35.890625 265.839844 35.066406 C 266.140625 34.339844 266.402344 33.601562 266.625 32.847656 C 266.808594 32.128906 266.957031 31.410156 267.070312 30.675781 C 267.136719 30.09375 267.183594 29.507812 267.199219 28.921875 C 267.1875 28.332031 267.152344 27.746094 267.085938 27.160156 C 267 26.550781 266.886719 25.949219 266.746094 25.347656 C 266.582031 24.753906 266.398438 24.167969 266.1875 23.585938 C 266.023438 23.191406 265.847656 22.804688 265.660156 22.421875 C 265.457031 22.078125 265.242188 21.75 265.011719 21.417969 C 264.746094 21.09375 264.476562 20.78125 264.1875 20.484375 C 263.722656 20.039062 263.246094 19.617188 262.75 19.210938 C 262.09375 18.710938 261.417969 18.246094 260.710938 17.808594 C 259.765625 17.269531 258.800781 16.78125 257.800781 16.351562 C 256.691406 15.910156 255.5625 15.53125 254.414062 15.207031 C 252.847656 14.800781 251.269531 14.5 249.667969 14.261719 C 247.582031 14.011719 245.496094 13.878906 243.386719 13.851562 C 240.363281 13.863281 237.359375 14.074219 234.363281 14.445312 C 230.625 14.960938 226.9375 15.726562 223.28125 16.652344 C 218.558594 17.894531 213.863281 19.3125 209.320312 21.109375 C 198.835938 25.46875 188.90625 31.058594 179.007812 36.609375 C 179.054688 36.585938 179.097656 36.554688 179.148438 36.53125 C 178.980469 36.621094 178.8125 36.714844 178.648438 36.8125 C 178.652344 36.808594 178.652344 36.808594 178.660156 36.808594 C 177.664062 37.363281 176.671875 37.925781 175.675781 38.480469 C 175.175781 38.765625 174.675781 39.042969 174.179688 39.324219 C 174.167969 39.328125 174.164062 39.332031 174.15625 39.332031 C 174.089844 39.378906 174.019531 39.417969 173.945312 39.449219 C 173.90625 39.472656 173.863281 39.496094 173.820312 39.519531 C 173.773438 39.546875 173.722656 39.578125 173.675781 39.605469 C 173.664062 39.609375 173.652344 39.621094 173.644531 39.625 C 173.585938 39.65625 173.527344 39.691406 173.46875 39.722656 C 172.960938 40.007812 172.453125 40.289062 171.945312 40.578125 C 169.742188 41.808594 167.539062 43.035156 165.324219 44.242188 C 163.230469 45.386719 161.109375 46.480469 158.984375 47.570312 C 156.859375 48.65625 154.726562 49.71875 152.554688 50.6875 C 148.019531 52.71875 143.417969 54.605469 138.765625 56.335938 C 136.128906 57.3125 133.476562 58.25 130.816406 59.160156 C 128.183594 60.058594 125.519531 60.851562 122.847656 61.605469 C 117.496094 63.105469 112.105469 64.433594 106.652344 65.476562 C 101.546875 66.460938 96.429688 67.351562 91.28125 68.113281 C 85.796875 68.917969 80.289062 69.648438 74.769531 70.171875 C 69.5 70.675781 64.210938 71.085938 58.929688 71.390625 C 53.785156 71.691406 48.613281 71.628906 43.472656 71.597656 C 40.75 71.582031 38.027344 71.558594 35.308594 71.449219 C 32.589844 71.339844 29.882812 71.140625 27.171875 70.90625 C 25.839844 70.792969 24.503906 70.664062 23.167969 70.523438 C 22.546875 70.464844 21.925781 70.386719 21.308594 70.3125 C 21.027344 70.277344 20.742188 70.246094 20.464844 70.207031 C 20.28125 70.183594 20.101562 70.164062 19.925781 70.132812 C 19.785156 70.117188 19.648438 70.097656 19.503906 70.082031 C 17.1875 69.773438 14.886719 69.386719 12.582031 68.996094 C 10.425781 68.636719 8.265625 68.25 6.152344 67.683594 C 5.03125 67.378906 3.859375 67.078125 2.847656 66.5 C 2.804688 66.476562 2.761719 66.453125 2.722656 66.425781 C 2.6875 66.410156 2.660156 66.382812 2.625 66.367188 C 1.835938 65.867188 1.582031 64.761719 1.992188 63.945312 C 2.425781 63.054688 3.636719 62.566406 4.53125 63.078125 C 4.710938 63.183594 4.894531 63.273438 5.085938 63.359375 C 5.769531 63.621094 6.46875 63.820312 7.171875 64.015625 C 9.199219 64.535156 11.257812 64.910156 13.324219 65.257812 C 15.585938 65.636719 17.855469 66.023438 20.132812 66.324219 C 20.46875 66.367188 20.800781 66.414062 21.132812 66.460938 C 21.078125 66.453125 21.015625 66.445312 20.957031 66.433594 C 24.988281 66.925781 29.046875 67.316406 33.101562 67.53125 C 37.34375 67.753906 41.582031 67.789062 45.828125 67.800781 C 45.746094 67.800781 45.667969 67.800781 45.582031 67.800781 C 48.519531 67.804688 51.453125 67.804688 54.386719 67.746094 C 57.488281 67.683594 60.585938 67.492188 63.679688 67.265625 C 69.984375 66.800781 76.285156 66.257812 82.558594 65.464844 C 82.476562 65.476562 82.398438 65.488281 82.3125 65.5 C 87.945312 64.761719 93.5625 63.960938 99.15625 62.988281 C 101.925781 62.503906 104.6875 61.984375 107.441406 61.441406 C 110.53125 60.835938 113.585938 60.109375 116.632812 59.328125 C 116.617188 59.332031 116.605469 59.335938 116.589844 59.339844 C 121.128906 58.15625 125.636719 56.902344 130.082031 55.382812 C 134.351562 53.929688 138.589844 52.378906 142.78125 50.703125 C 142.703125 50.738281 142.632812 50.769531 142.554688 50.796875 C 147.023438 48.988281 151.453125 47.09375 155.765625 44.929688 C 160.15625 42.726562 164.472656 40.386719 168.765625 37.996094 C 169.757812 37.445312 170.742188 36.894531 171.730469 36.335938 C 171.917969 36.222656 172.121094 36.121094 172.3125 36.011719 C 172.359375 35.980469 172.40625 35.957031 172.457031 35.929688 C 172.789062 35.742188 173.125 35.554688 173.457031 35.367188 C 174.621094 34.714844 175.789062 34.054688 176.957031 33.398438 C 176.910156 33.429688 176.867188 33.453125 176.824219 33.476562 C 185.644531 28.527344 194.488281 23.574219 203.714844 19.390625 C 206.066406 18.328125 208.441406 17.328125 210.871094 16.453125 C 213.132812 15.636719 215.441406 14.9375 217.746094 14.246094 C 222.355469 12.855469 227.042969 11.757812 231.792969 10.972656 C 236.792969 10.140625 241.898438 9.863281 246.957031 10.164062 C 251.613281 10.445312 256.257812 11.4375 260.503906 13.386719 C 262.574219 14.335938 264.535156 15.632812 266.21875 17.167969 C 266.96875 17.84375 267.65625 18.585938 268.25 19.414062 C 268.898438 20.3125 269.410156 21.324219 269.785156 22.363281 C 270.507812 24.355469 270.957031 26.457031 270.988281 28.582031 C 271.015625 30.683594 270.660156 32.78125 270.003906 34.777344 C 267.792969 41.535156 262.503906 46.621094 257.128906 50.984375 C 253.929688 53.578125 250.621094 56.035156 247.375 58.570312 C 244.054688 61.167969 240.808594 63.863281 237.78125 66.796875 C 236.382812 68.183594 235.039062 69.617188 233.800781 71.15625 C 233.371094 71.730469 232.972656 72.316406 232.59375 72.925781 C 232.195312 73.625 231.832031 74.339844 231.511719 75.078125 C 231.402344 75.375 231.300781 75.675781 231.203125 75.976562 C 231.097656 76.402344 231.011719 76.824219 230.945312 77.257812 C 230.886719 77.765625 230.851562 78.261719 230.839844 78.773438 C 230.847656 79.007812 230.859375 79.246094 230.886719 79.480469 C 230.917969 79.679688 230.953125 79.875 230.992188 80.074219 C 231.0625 80.289062 231.132812 80.5 231.207031 80.714844 C 231.359375 81.046875 231.519531 81.367188 231.691406 81.6875 C 231.953125 82.132812 232.222656 82.5625 232.519531 82.980469 C 232.820312 83.371094 233.140625 83.746094 233.476562 84.105469 C 233.875 84.5 234.289062 84.867188 234.722656 85.222656 C 235.132812 85.523438 235.554688 85.808594 235.988281 86.078125 C 236.421875 86.316406 236.863281 86.535156 237.324219 86.734375 C 237.972656 86.988281 238.632812 87.207031 239.304688 87.398438 C 240.148438 87.609375 240.996094 87.773438 241.863281 87.902344 C 242.96875 88.03125 244.074219 88.09375 245.1875 88.113281 C 246.550781 88.09375 247.90625 88.007812 249.257812 87.859375 C 251.152344 87.609375 253.023438 87.238281 254.878906 86.773438 C 257.324219 86.117188 259.71875 85.308594 262.074219 84.375 C 261.996094 84.402344 261.921875 84.433594 261.847656 84.464844 C 264.886719 83.226562 267.832031 81.800781 270.695312 80.195312 C 270.621094 80.238281 270.550781 80.277344 270.480469 80.320312 C 273.253906 78.734375 275.917969 76.984375 278.484375 75.085938 C 281.988281 72.421875 285.289062 69.511719 288.550781 66.554688 C 291.375 63.980469 294.183594 61.394531 297.019531 58.835938 C 299.867188 56.273438 302.742188 53.738281 305.675781 51.277344 C 308.628906 48.796875 311.667969 46.410156 314.757812 44.097656 C 314.746094 44.105469 314.734375 44.113281 314.722656 44.121094 C 318.15625 41.554688 321.65625 39.089844 325.214844 36.699219 C 328.917969 34.210938 332.691406 31.796875 336.578125 29.613281 C 341.398438 26.902344 346.511719 24.761719 351.929688 23.617188 C 354.3125 23.109375 356.785156 22.890625 359.21875 22.953125 C 361.4375 23.003906 363.617188 23.359375 365.753906 23.953125 C 368.832031 24.8125 371.675781 26.449219 374.105469 28.503906 C 376.496094 30.523438 378.359375 33.203125 379.566406 36.085938 C 380.027344 37.195312 380.40625 38.328125 380.703125 39.484375 C 381.273438 39.355469 381.84375 39.226562 382.414062 39.105469 C 385.527344 38.429688 388.675781 37.921875 391.855469 37.660156 C 394.601562 37.4375 397.359375 37.414062 400.117188 37.300781 C 403.621094 37.164062 407.117188 36.90625 410.601562 36.480469 C 410.523438 36.488281 410.441406 36.5 410.363281 36.511719 C 414.355469 35.996094 418.296875 35.226562 422.199219 34.21875 C 426.957031 32.953125 431.617188 31.378906 436.195312 29.554688 C 436.121094 29.582031 436.046875 29.613281 435.96875 29.648438 C 442.179688 27.136719 448.152344 24.121094 454 20.851562 C 453.976562 20.863281 453.949219 20.878906 453.925781 20.894531 C 458.566406 18.28125 463.128906 15.523438 467.804688 12.972656 C 470.046875 11.75 472.316406 10.585938 474.632812 9.507812 C 476.871094 8.472656 479.160156 7.542969 481.46875 6.679688 C 485.796875 5.0625 490.246094 3.757812 494.734375 2.671875 C 498.53125 1.75 502.367188 1.003906 506.246094 0.523438 C 510.753906 -0.0351562 515.3125 0.0507812 519.769531 0.953125 C 524.472656 1.894531 528.988281 3.578125 533.386719 5.460938 C 534.339844 5.871094 534.6875 7.125 534.25 8.015625 C 534.023438 8.472656 533.621094 8.824219 533.140625 8.980469 C 532.648438 9.140625 532.171875 9.078125 531.703125 8.878906 C 531.316406 8.714844 530.9375 8.550781 530.546875 8.390625 C 530.625 8.421875 530.699219 8.453125 530.78125 8.488281 C 527.898438 7.292969 524.976562 6.226562 521.976562 5.386719 C 522.03125 5.398438 522.085938 5.414062 522.144531 5.429688 C 522.078125 5.410156 522.019531 5.394531 521.957031 5.382812 C 521.941406 5.375 521.921875 5.371094 521.902344 5.363281 C 521.921875 5.371094 521.9375 5.375 521.957031 5.378906 C 520.160156 4.90625 518.347656 4.523438 516.503906 4.265625 C 515.035156 4.085938 513.5625 3.988281 512.085938 3.96875 C 510.066406 3.976562 508.054688 4.132812 506.050781 4.382812 C 506.105469 4.375 506.160156 4.367188 506.214844 4.363281 C 501.984375 4.914062 497.8125 5.800781 493.683594 6.855469 C 493.761719 6.835938 493.839844 6.816406 493.917969 6.792969 C 489.421875 7.964844 484.988281 9.371094 480.65625 11.066406 C 476.164062 12.875 471.855469 15.058594 467.625 17.417969 C 462.992188 20.023438 458.433594 22.769531 453.769531 25.324219 C 449 27.949219 444.125 30.378906 439.097656 32.476562 C 434.128906 34.542969 429.042969 36.308594 423.859375 37.71875 C 418.78125 39.101562 413.613281 40.015625 408.382812 40.5625 C 404.683594 40.953125 400.96875 41.097656 397.257812 41.222656 C 394.648438 41.304688 392.050781 41.417969 389.457031 41.734375 C 386.746094 42.097656 384.050781 42.617188 381.382812 43.234375 C 381.792969 46.980469 381.449219 50.816406 380.480469 54.453125 C 380.019531 56.132812 379.421875 57.757812 378.675781 59.328125 C 377.941406 60.878906 377 62.328125 375.953125 63.6875 C 374.042969 66.160156 371.6875 68.351562 369 69.949219 C 366.726562 71.304688 364.25 72.25 361.65625 72.730469 C 360.507812 72.941406 359.34375 73.03125 358.1875 73.027344 C 357.195312 73.023438 356.1875 72.929688 355.226562 72.671875 C 353.359375 72.171875 351.640625 71.164062 350.617188 69.46875 C 349.554688 67.699219 349.398438 65.625 349.707031 63.621094 C 350.074219 61.265625 351.148438 59.09375 352.359375 57.074219 C 353.039062 55.941406 353.816406 54.863281 354.628906 53.820312 C 355.460938 52.757812 356.347656 51.734375 357.304688 50.78125 C 361.652344 46.472656 367.164062 43.535156 372.925781 41.617188 C 374.277344 41.171875 375.648438 40.765625 377.019531 40.394531 C 377.011719 40.363281 377.003906 40.332031 376.996094 40.296875 C 376.769531 39.472656 376.5 38.664062 376.191406 37.863281 C 375.910156 37.199219 375.609375 36.554688 375.273438 35.917969 C 374.921875 35.300781 374.542969 34.699219 374.128906 34.113281 C 373.640625 33.46875 373.117188 32.859375 372.558594 32.269531 C 372.042969 31.761719 371.507812 31.28125 370.949219 30.828125 C 370.246094 30.296875 369.527344 29.8125 368.78125 29.363281 C 368.128906 29.003906 367.464844 28.667969 366.785156 28.367188 C 365.933594 28.019531 365.074219 27.722656 364.1875 27.46875 C 363.257812 27.234375 362.324219 27.058594 361.378906 26.925781 C 360.351562 26.816406 359.335938 26.753906 358.3125 26.746094 C 357.199219 26.769531 356.09375 26.847656 354.984375 26.976562 C 353.578125 27.167969 352.195312 27.4375 350.8125 27.78125 C 348.957031 28.277344 347.140625 28.886719 345.351562 29.582031 C 345.402344 29.5625 345.457031 29.542969 345.507812 29.519531 C 343.234375 30.445312 341.027344 31.507812 338.875 32.6875 C 335.070312 34.828125 331.378906 37.167969 327.75 39.585938 C 324.15625 41.984375 320.625 44.472656 317.160156 47.046875 C 317 47.164062 316.84375 47.28125 316.683594 47.402344 C 316.695312 47.390625 316.707031 47.386719 316.710938 47.378906 C 313.324219 49.925781 310.015625 52.570312 306.792969 55.316406 C 303.484375 58.132812 300.257812 61.03125 297.042969 63.949219 C 293.90625 66.800781 290.800781 69.6875 287.621094 72.496094 C 283.5 76.140625 279.160156 79.546875 274.453125 82.402344 C 270.121094 85.027344 265.53125 87.25 260.757812 88.941406 C 256.375 90.496094 251.785156 91.613281 247.128906 91.867188 C 246.480469 91.902344 245.832031 91.921875 245.179688 91.921875 C 241.753906 91.921875 238.28125 91.398438 235.171875 89.945312 " fill-opacity="1" fill-rule="nonzero"/></g></g></g></g></svg>